<?xml version="1.0" standalone="no"?>
<!DOCTYPE svg PUBLIC "-//W3C//DTD SVG 20010904//EN"
 "http://www.w3.org/TR/2001/REC-SVG-20010904/DTD/svg10.dtd">
<svg version="1.0" xmlns="http://www.w3.org/2000/svg"
 width="467.000000pt" height="467.000000pt" viewBox="0 0 467.000000 467.000000"
 preserveAspectRatio="xMidYMid meet">
<metadata>
Created by potrace 1.14, written by Peter Selinger 2001-2017
</metadata>
<g transform="translate(0.000000,467.000000) scale(0.100000,-0.100000)"
fill="#000000" stroke="none">
<path d="M2300 4559 c40 -120 52 -196 55 -339 2 -117 -10 -234 -35 -340 -6
-25 -11 -49 -12 -55 0 -5 -9 -32 -20 -60 -11 -27 -20 -52 -20 -55 -2 -25 -88
-221 -135 -310 -131 -245 -300 -476 -546 -744 -245 -266 -335 -428 -332 -595
0 -33 -2 -61 -6 -61 -5 0 -22 65 -34 135 -27 161 -25 354 5 490 5 22 11 51 14
65 23 127 114 331 210 474 35 53 61 96 57 96 -17 0 -125 -91 -206 -173 -201
-205 -355 -492 -459 -855 -101 -351 -129 -678 -81 -955 49 -282 196 -550 421
-769 131 -128 255 -216 430 -305 338 -174 683 -233 1049 -179 503 73 834 361
871 756 3 36 7 77 9 92 1 16 0 28 -4 28 -3 -1 -26 -32 -50 -71 -98 -158 -285
-317 -455 -388 -139 -58 -216 -73 -366 -74 -299 0 -567 88 -725 239 -81 78
-156 202 -189 314 -65 217 -20 619 100 899 79 184 155 305 375 597 194 257
340 527 394 724 35 126 46 178 56 245 24 169 16 356 -22 522 -6 27 -12 55 -14
63 -13 62 -97 267 -143 349 -14 25 -30 55 -36 66 -17 31 -132 197 -160 230
l-25 30 29 -86z"/>
<path d="M3000 3824 c9 -38 6 -361 -3 -404 -3 -14 -11 -54 -17 -90 -14 -80
-55 -243 -74 -290 -54 -135 -91 -218 -117 -261 -16 -27 -29 -52 -29 -54 0 -10
-96 -155 -160 -240 -278 -376 -450 -723 -503 -1015 -14 -76 -16 -281 -4 -345
14 -80 24 -109 57 -182 59 -128 131 -219 241 -307 207 -164 498 -157 742 18
187 133 305 357 309 586 3 191 -38 325 -168 550 -23 40 -16 35 61 -44 182
-189 302 -429 334 -671 13 -100 6 -297 -13 -385 -10 -41 -19 -84 -21 -95 -3
-12 -13 -46 -24 -78 -11 -31 -18 -57 -16 -57 1 0 27 37 55 81 64 100 127 234
168 359 40 121 67 236 87 370 8 54 18 198 18 265 0 79 -13 316 -18 325 -1 3
-6 30 -9 61 -4 31 -9 67 -11 80 -3 13 -9 49 -15 79 -69 371 -253 821 -513
1255 -87 145 -348 525 -361 525 -2 0 0 -16 4 -36z"/>
</g>
</svg>
