<svg id="g10" xmlns="http://www.w3.org/2000/svg" xmlns:xlink="http://www.w3.org/1999/xlink" width="268.031" height="391.409" viewBox="0 0 268.031 391.409">
  <g id="main" transform="translate(0)">
    <g id="g32" transform="translate(113.257 67.344)">
      <g id="Group_16" data-name="Group 16">
        <path id="path46" d="M1306.083-2185.648s11.29,57.877-30.941,113.294-66.814,117.6-21.432,156.395,125.434-26.473,73.118-99.131c0,0,57.359,42.486,28.994,116.372,0,0,89.616-103.44-49.739-286.93" transform="translate(-1229.412 2185.648)"/>
      </g>
    </g>
    <g id="g48">
      <g id="Group_16-2" data-name="Group 16">
        <path id="path62" d="M1033.092-2465.086s25.8,40.325-10.184,106.949-78.078,77.725-73.325,119.805c0,0-21.047-53.768,21.726-109.287,0,0-50.92,25.717-64.5,123.313s70.609,143.763,120.85,149.609,114.286-12.663,112.928-75.193c0,0-31.953,67.973-113.154,38.961-23.989-8.573-38.607-31.26-39.421-54.948-1.259-36.64,12.685-71.04,30.143-93.5,16.973-23.961,97.086-106.95,14.936-205.714" transform="translate(-905.349 2465.086)"/>
      </g>
    </g>
  </g>
</svg>
