<svg xmlns="http://www.w3.org/2000/svg" width="162.295" height="237" viewBox="0 0 162.295 237">
  <g id="main" transform="translate(-24.957)">
    <g id="g10" transform="translate(24.957)">
      <g id="g12" transform="translate(0)">
        <g id="g32" transform="translate(68.578 40.777)">
          <g id="Group_16" data-name="Group 16">
            <path id="path46" d="M1275.837-2185.649s6.836,35.044-18.735,68.6-40.457,71.21-12.977,94.7,75.951-16.029,44.274-60.024c0,0,34.731,25.725,17.556,70.463,0,0,54.262-62.633-30.117-173.738" transform="translate(-1229.412 2185.649)"/>
          </g>
        </g>
        <g id="g48">
          <g id="Group_16-2" data-name="Group 16">
            <path id="path62" d="M982.7-2465.087s15.623,24.417-6.167,64.758-47.277,47.063-44.4,72.542c0,0-12.744-32.556,13.155-66.174,0,0-30.833,15.572-39.054,74.667s42.754,87.05,73.175,90.589,69.2-7.667,68.379-45.53c0,0-19.348,41.158-68.516,23.592-14.525-5.191-23.377-18.929-23.87-33.272a90.094,90.094,0,0,1,18.252-56.612c10.277-14.508,58.787-64.759,9.044-124.561" transform="translate(-905.349 2465.087)"/>
          </g>
        </g>
      </g>
    </g>
  </g>
</svg>
