<svg xmlns="http://www.w3.org/2000/svg" xmlns:xlink="http://www.w3.org/1999/xlink" width="1685.724" height="272.475" viewBox="0 0 1685.724 272.475">
  <defs>
    <radialGradient id="radial-gradient" cx="0.5" cy="0.5" r="0.5" gradientUnits="objectBoundingBox">
      <stop offset="0" stop-color="#4c7ac5"/>
      <stop offset="1" stop-color="#004f94"/>
    </radialGradient>
    <radialGradient id="radial-gradient-2" cx="0.5" cy="0.5" r="0.5" gradientUnits="objectBoundingBox">
      <stop offset="0" stop-color="#ffc100"/>
      <stop offset="1" stop-color="#e20613"/>
    </radialGradient>
  </defs>
  <g id="Group_28" data-name="Group 28" transform="translate(-116.925 -403.446)">
    <g id="Group_17" data-name="Group 17" transform="translate(96.753 403.446)">
      <g id="Group_2" data-name="Group 2" transform="translate(20.172 0.045)">
        <path id="Path_66" data-name="Path 66" d="M105.789,41.164q41.561,0,72.638,17.067a119.663,119.663,0,0,1,48.113,47.9q17.036,30.836,17.036,71.175,0,39.951-17.036,70.981a119.031,119.031,0,0,1-48.3,48.1q-31.264,17.066-72.45,17.066H7.316V41.164ZM101.67,256.047q36.319,0,56.538-20.557t20.219-58.181q0-37.624-20.219-58.569T101.67,97.794H71.342V256.047Z" transform="translate(258.424 -41.209)" fill="#fff"/>
        <path id="Path_15" data-name="Path 15" d="M236.44-65.741c0,22.612-1.092,30.188-1.092,30.188H172.179V-69.171H64.667l.026,56.418h63.968V47.506H64.694l-.026,98.761H0V-65.741C0-95.164,0-126,59.318-126H175.157C233.994-126,236.44-88.353,236.44-65.741Z" transform="translate(0 125.976)" fill="#fff"/>
        <g id="g10" transform="translate(143.003 -0.024)">
          <g id="g12" transform="translate(0)">
            <g id="g32" transform="translate(78.783 46.845)">
              <g id="Group_16" data-name="Group 16">
                <path id="path46" d="M1282.745-2185.648s7.854,40.26-21.523,78.809-46.477,81.806-14.908,108.789,87.253-18.415,50.862-68.957c0,0,39.9,29.554,20.168,80.949,0,0,62.337-71.954-34.6-199.591" transform="translate(-1229.412 2185.648)" fill="url(#radial-gradient)"/>
              </g>
            </g>
            <g id="g48">
              <g id="Group_16-2" data-name="Group 16">
                <path id="path62" d="M994.208-2465.087s17.948,28.05-7.084,74.395-54.311,54.066-51.005,83.338c0,0-14.64-37.4,15.113-76.021,0,0-35.42,17.889-44.866,85.778s49.116,100,84.064,104.069,79.5-8.808,78.554-52.3c0,0-22.227,47.283-78.711,27.1-16.687-5.963-26.855-21.745-27.422-38.222a103.5,103.5,0,0,1,20.968-65.036c11.807-16.668,67.534-74.4,10.39-143.1" transform="translate(-905.349 2465.087)" fill="url(#radial-gradient-2)"/>
              </g>
            </g>
          </g>
        </g>
      </g>
    </g>
    <path id="Path_48" data-name="Path 48" d="M8.7,41.247H64.117V53.341H23.747V77.018H60.6V89.112H23.8v33.557H8.7Zm69.584-5.791H92.536v87.213H78.284Zm76.057,84.09a38.732,38.732,0,0,1-34.181,0,31.205,31.205,0,0,1-12.491-11.555A32.064,32.064,0,0,1,102.956,90.7a32.065,32.065,0,0,1,4.713-17.289A31.41,31.41,0,0,1,120.16,61.83a38.486,38.486,0,0,1,34.181,0A31.836,31.836,0,0,1,171.6,90.7a31.92,31.92,0,0,1-4.741,17.289A31.4,31.4,0,0,1,154.341,119.546Zm-31.371-14.024a20.253,20.253,0,0,0,28.588,0,20.237,20.237,0,0,0,5.848-14.848,20.237,20.237,0,0,0-5.848-14.848,20.253,20.253,0,0,0-28.588,0,20.185,20.185,0,0,0-5.877,14.848A20.185,20.185,0,0,0,122.971,105.521Zm59.108-46.786h13.57l.681,8.4a21.692,21.692,0,0,1,9.482-7.353q5.28-1.959,14.138-1.959V69.921q-11.129,0-17.374,5.706T196.331,90.7v31.967H182.079Zm63.225,0V90.7q0,10.163,3.549,15.444t11.5,5.28q8.517,0,13.173-5.678T278.179,90.7V58.735h14.195v63.933H278.8l-.625-10.107q-6.359,11.072-22.541,11.015a27.267,27.267,0,0,1-11.5-2.214,17.757,17.757,0,0,1-7.637-6.615,31.3,31.3,0,0,1-4.145-10.305A64.158,64.158,0,0,1,231.053,90.7V58.735ZM355.656,74.349l-14.195.965A8.653,8.653,0,0,0,337.6,70.2a12.909,12.909,0,0,0-7.381-2.1,15.7,15.7,0,0,0-8.4,2.044A6.5,6.5,0,0,0,318.522,76a5.871,5.871,0,0,0,3.208,5.479,42.2,42.2,0,0,0,10.305,3.435q5.451,1.306,9.2,2.47a53.642,53.642,0,0,1,7.1,2.754,18.743,18.743,0,0,1,5.252,3.492,13.123,13.123,0,0,1,2.924,4.457,14.128,14.128,0,0,1,.908,5.791q-.227,9.312-7.325,14.45t-19.475,5.139q-11.867,0-19.248-4.514a17.5,17.5,0,0,1-8.574-13.144l14.081-1.249a9.781,9.781,0,0,0,5,6.3,17.821,17.821,0,0,0,8.744,2.158,16.485,16.485,0,0,0,8.914-2.243,6.893,6.893,0,0,0,3.577-6.1,6.249,6.249,0,0,0-2.214-4.713,16.582,16.582,0,0,0-5.422-3.265,60.188,60.188,0,0,0-7.977-2.3q-6.7-1.647-10.618-2.981a28.586,28.586,0,0,1-6.984-3.435,11.557,11.557,0,0,1-4.287-4.968A17.9,17.9,0,0,1,304.384,76q0-8.8,7.012-13.513t19.163-4.713q10.674,0,17.318,4.23A16.658,16.658,0,0,1,355.656,74.349Zm63.055,0-14.195.965a8.653,8.653,0,0,0-3.861-5.11,12.909,12.909,0,0,0-7.381-2.1,15.7,15.7,0,0,0-8.4,2.044A6.5,6.5,0,0,0,381.577,76a5.871,5.871,0,0,0,3.208,5.479A42.2,42.2,0,0,0,395.09,84.91q5.451,1.306,9.2,2.47a53.641,53.641,0,0,1,7.1,2.754,18.742,18.742,0,0,1,5.252,3.492,13.123,13.123,0,0,1,2.924,4.457,14.129,14.129,0,0,1,.908,5.791q-.227,9.312-7.325,14.45t-19.475,5.139q-11.867,0-19.248-4.514a17.5,17.5,0,0,1-8.574-13.144l14.081-1.249a9.781,9.781,0,0,0,5,6.3,17.82,17.82,0,0,0,8.744,2.158,16.485,16.485,0,0,0,8.914-2.243,6.893,6.893,0,0,0,3.577-6.1,6.249,6.249,0,0,0-2.214-4.713,16.582,16.582,0,0,0-5.422-3.265,60.19,60.19,0,0,0-7.978-2.3q-6.7-1.647-10.618-2.981a28.585,28.585,0,0,1-6.984-3.435,11.557,11.557,0,0,1-4.287-4.968A17.9,17.9,0,0,1,367.439,76q0-8.8,7.012-13.513t19.163-4.713q10.675,0,17.318,4.23A16.659,16.659,0,0,1,418.711,74.349Zm43.409-16.58A35.416,35.416,0,0,1,476.059,60.5a30.91,30.91,0,0,1,17.914,19.475,41.3,41.3,0,0,1,1.93,15.5H442.474a20.6,20.6,0,0,0,6.927,12.122,19.05,19.05,0,0,0,12.719,4.628,19.426,19.426,0,0,0,11.1-3.265,20.723,20.723,0,0,0,7.41-9l12.151,5.848a31.063,31.063,0,0,1-12.491,13,35.794,35.794,0,0,1-18.169,4.769,37,37,0,0,1-13.173-2.356,34.342,34.342,0,0,1-10.93-6.558,30.209,30.209,0,0,1-7.438-10.419,34.673,34.673,0,0,1,0-27.084,30.5,30.5,0,0,1,7.438-10.447,34.069,34.069,0,0,1,10.93-6.586A37,37,0,0,1,462.119,57.77Zm0,11.413a19.154,19.154,0,0,0-12.946,4.6,20.487,20.487,0,0,0-6.757,12.151h39.462a20.4,20.4,0,0,0-6.757-12.179A19.306,19.306,0,0,0,462.119,69.183Zm91.444,53.486V90.7q0-10.22-3.549-15.5t-11.5-5.28q-8.574,0-13.23,5.678t-4.656,15.1v31.967H506.437V58.735h13.57l.625,10.107q6.359-11.072,22.541-11.072a26.968,26.968,0,0,1,11.5,2.243,17.946,17.946,0,0,1,7.637,6.643,31.3,31.3,0,0,1,4.145,10.305A64.166,64.166,0,0,1,567.759,90.7v31.967Zm118.919,0-10-10a39.138,39.138,0,0,1-12.675,8.663,39.674,39.674,0,0,1-15.349,2.849,36.347,36.347,0,0,1-15.233-3.023,23.235,23.235,0,0,1-10.233-8.663,23.76,23.76,0,0,1-3.6-13.082,24.8,24.8,0,0,1,4.768-14.943q4.768-6.57,14.187-10.407a28.856,28.856,0,0,1-4.768-7.617,21.265,21.265,0,0,1-1.4-7.849,17.054,17.054,0,0,1,2.733-9.535,18.721,18.721,0,0,1,7.849-6.628,27.241,27.241,0,0,1,11.861-2.442,24.216,24.216,0,0,1,11.687,2.616,17.11,17.11,0,0,1,7.21,7.151,18.07,18.07,0,0,1,1.919,10.117H648.18a9.084,9.084,0,0,0-2.093-6.686,7.84,7.84,0,0,0-6.047-2.384,8.654,8.654,0,0,0-6.221,2.268,7.335,7.335,0,0,0-2.384,5.523,12.209,12.209,0,0,0,1.8,6.221,49.922,49.922,0,0,0,6.338,7.965l21.4,21.28,8.256-13.605h14.3L673.065,98.365l-2.907,4.768,19.652,19.536ZM634.458,112.9q10.931,0,19.3-8.954l-21.4-21.513Q618.644,87.9,618.644,98.947a12.889,12.889,0,0,0,4.419,9.942A16.3,16.3,0,0,0,634.458,112.9ZM757.493,41.247A42.921,42.921,0,0,1,778.7,46.5a37.848,37.848,0,0,1,14.763,14.536,41.389,41.389,0,0,1,5.309,20.923,41.545,41.545,0,0,1-5.309,20.952A37.6,37.6,0,0,1,778.7,117.445a43.106,43.106,0,0,1-21.207,5.224H725.128V41.247Zm-1.817,69.328A26.959,26.959,0,0,0,775.52,102.4q8.148-8.176,8.148-20.441,0-12.491-8.119-20.554a27.126,27.126,0,0,0-19.873-8.063H740.232v57.234Zm62.089-60.981a8.627,8.627,0,0,1-8.63-8.63,8.186,8.186,0,0,1,2.527-5.99,8.284,8.284,0,0,1,6.076-2.527,8.579,8.579,0,0,1,8.545,8.517,8.392,8.392,0,0,1-2.5,6.075A8.113,8.113,0,0,1,817.765,49.594Zm-7.154,9.141h14.252v63.933H810.611Zm33.813-9.141a8.627,8.627,0,0,1-8.63-8.63,8.186,8.186,0,0,1,2.527-5.99,8.283,8.283,0,0,1,6.075-2.527,8.579,8.579,0,0,1,8.545,8.517,8.393,8.393,0,0,1-2.5,6.075A8.113,8.113,0,0,1,844.424,49.594Zm7.1,9.141v66.318q0,10.731-4.4,15.87T832.5,146.062a69.152,69.152,0,0,1-11.7-1.022V134.195a25.968,25.968,0,0,0,9.709.4,6.774,6.774,0,0,0,5.167-2.725q1.59-2.328,1.59-6.757V58.735Zm74.978,0L900.154,85.989,926.5,122.669H909.92l-19.3-26.8-9.653,9.993v16.807H866.825V35.456h14.138V87.3l27.595-28.56Zm56.638,15.614-14.195.965a8.653,8.653,0,0,0-3.861-5.11,12.909,12.909,0,0,0-7.381-2.1,15.7,15.7,0,0,0-8.4,2.044A6.5,6.5,0,0,0,946,76a5.871,5.871,0,0,0,3.208,5.479,42.2,42.2,0,0,0,10.305,3.435q5.451,1.306,9.2,2.47a53.64,53.64,0,0,1,7.1,2.754,18.741,18.741,0,0,1,5.252,3.492,13.123,13.123,0,0,1,2.924,4.457,14.129,14.129,0,0,1,.908,5.791q-.227,9.312-7.325,14.45T958.1,123.464q-11.867,0-19.248-4.514a17.5,17.5,0,0,1-8.574-13.144l14.081-1.249a9.781,9.781,0,0,0,5,6.3,17.821,17.821,0,0,0,8.744,2.158,16.485,16.485,0,0,0,8.914-2.243,6.893,6.893,0,0,0,3.577-6.1,6.249,6.249,0,0,0-2.214-4.713,16.583,16.583,0,0,0-5.422-3.265,60.19,60.19,0,0,0-7.977-2.3q-6.7-1.647-10.618-2.981a28.586,28.586,0,0,1-6.984-3.435,11.556,11.556,0,0,1-4.287-4.968A17.9,17.9,0,0,1,931.867,76q0-8.8,7.012-13.513t19.163-4.713q10.675,0,17.318,4.23A16.658,16.658,0,0,1,983.138,74.349Zm17.007-30.093h14.138V58.735h16.466V69.864h-16.466v31.8q0,4.372,1.561,6.672a6.61,6.61,0,0,0,5.025,2.7,25.219,25.219,0,0,0,9.88-.284V122.5a73.082,73.082,0,0,1-11.64,1.022q-10.277,0-14.621-5.252t-4.344-16.1V69.864H991.06V58.735h9.085Zm43.125,14.479h13.57l.681,8.4A21.691,21.691,0,0,1,1067,59.786q5.281-1.959,14.138-1.959V69.921q-11.129,0-17.375,5.706T1057.521,90.7v31.967H1043.27Zm71.571-.965a34.191,34.191,0,0,1,14.649,2.953,20.014,20.014,0,0,1,9.255,8.119l.625-10.107h13.57v63.933h-13.57l-.625-10.107q-5.621,11.072-23.9,11.015a29.433,29.433,0,0,1-15.416-4.2,29.872,29.872,0,0,1-11.072-11.753,35.158,35.158,0,0,1-4.06-16.92,35.158,35.158,0,0,1,4.06-16.92A30.078,30.078,0,0,1,1099.426,62,29.283,29.283,0,0,1,1114.841,57.77Zm3.747,53.656a19.346,19.346,0,0,0,14.28-5.933,20.21,20.21,0,0,0,5.877-14.819,20.262,20.262,0,0,0-5.848-14.819,20.082,20.082,0,0,0-28.5,0,20.262,20.262,0,0,0-5.848,14.819,20.262,20.262,0,0,0,5.848,14.819A19.188,19.188,0,0,0,1118.589,111.426Z" transform="translate(649.708 371)" fill="#fff"/>
    <path id="Path_50" data-name="Path 50" d="M29.693,42.573V169.642H8.85V42.573ZM161.515,169.642H140.672L77.961,74.752v94.89H57.118V42.391H77.961L140.672,137.1V42.391h20.843Zm69.293,1.28a56.908,56.908,0,0,1-23.037-4.479,37.806,37.806,0,0,1-16.089-12.707,32.27,32.27,0,0,1-5.851-19.2h22.306a20.137,20.137,0,0,0,6.491,13.53q5.759,5.3,16.181,5.3,10.787,0,16.821-5.211a16.939,16.939,0,0,0,6.033-13.438,14.676,14.676,0,0,0-3.748-10.421,25.071,25.071,0,0,0-9.324-6.216,140.611,140.611,0,0,0-15.449-4.754,144.753,144.753,0,0,1-20.2-6.673,33.385,33.385,0,0,1-13.255-10.513q-5.485-7.13-5.485-19.015a33.8,33.8,0,0,1,5.485-19.2A35.037,35.037,0,0,1,207.04,45.316a55.8,55.8,0,0,1,22.854-4.388q18.466,0,30.259,9.233t13.073,25.322H250.189A16.691,16.691,0,0,0,243.607,63.6q-6.033-4.936-15.906-4.936-8.959,0-14.627,4.571T207.406,76.4a13.361,13.361,0,0,0,3.565,9.6,25.175,25.175,0,0,0,9.05,5.942,140.492,140.492,0,0,0,14.992,4.754,156.514,156.514,0,0,1,20.569,6.948,34.238,34.238,0,0,1,13.53,10.7q5.576,7.222,5.576,19.289a34.682,34.682,0,0,1-5.211,18.283,37.59,37.59,0,0,1-15.175,13.8Q244.338,170.922,230.808,170.922ZM381.462,42.573v17H347.638V169.642H326.8V59.577H292.788v-17ZM479.095,143.68h-53.2l-9.142,25.962H394.992L440.517,42.391h24.134l45.525,127.251h-21.94Zm-5.851-17-20.66-59.055-20.843,59.055Zm77.521,26.145H593.73v16.821H529.922V42.573h20.843Zm81.177,0h42.966v16.821H611.1V42.573h20.843Zm136.941-9.142h-53.2l-9.142,25.962H684.781L730.306,42.391H754.44l45.525,127.251h-21.94Zm-5.851-17-20.66-59.055L721.53,126.676Zm138.77-84.1v17H867.979V169.642H847.136V59.577H813.129v-17Zm41.869,0V169.642H922.828V42.573Zm48.268,16.821v37.3h43.88v17h-43.88v38.943H1041.3v17H971.1V42.391H1041.3v17Zm116.83,111.528a56.908,56.908,0,0,1-23.037-4.479,37.806,37.806,0,0,1-16.089-12.707,32.27,32.27,0,0,1-5.851-19.2H1086.1a20.137,20.137,0,0,0,6.491,13.53q5.759,5.3,16.181,5.3,10.787,0,16.821-5.211a16.939,16.939,0,0,0,6.033-13.438,14.675,14.675,0,0,0-3.748-10.421,25.07,25.07,0,0,0-9.324-6.216,140.619,140.619,0,0,0-15.449-4.754,144.758,144.758,0,0,1-20.2-6.673,33.385,33.385,0,0,1-13.255-10.513q-5.485-7.13-5.485-19.015a33.8,33.8,0,0,1,5.485-19.2A35.036,35.036,0,0,1,1085,45.316a55.8,55.8,0,0,1,22.854-4.388q18.466,0,30.259,9.233t13.073,25.322h-23.037a16.691,16.691,0,0,0-6.582-11.884q-6.033-4.936-15.906-4.936-8.959,0-14.627,4.571T1085.366,76.4a13.361,13.361,0,0,0,3.565,9.6,25.175,25.175,0,0,0,9.05,5.942,140.493,140.493,0,0,0,14.992,4.754,156.51,156.51,0,0,1,20.569,6.948,34.238,34.238,0,0,1,13.53,10.7q5.576,7.222,5.576,19.289a34.681,34.681,0,0,1-5.211,18.283,37.589,37.589,0,0,1-15.175,13.8Q1122.3,170.922,1108.769,170.922Z" transform="translate(650 505)" fill="#fff"/>
  </g>
</svg>
